<svg width="40" height="40" viewBox="0 0 40 40" fill="none" xmlns="http://www.w3.org/2000/svg">
<path d="M38 20H33.5C33.5 16.2725 31.99 12.8975 29.545 10.455C27.1025 8.01 23.7275 6.5 20 6.5C16.2725 6.5 12.8975 8.01 10.455 10.455L7.27246 7.2725C10.53 4.015 15.03 2 20 2C24.97 2 29.47 4.015 32.7275 7.2725C35.985 10.53 38 15.03 38 20Z" fill="#01CCF5"/>
<path d="M32.7275 32.7275C29.47 35.985 24.97 38 20 38C15.03 38 10.53 35.985 7.2725 32.7275C4.015 29.47 2 24.97 2 20H6.5C6.5 23.7275 8.01 27.1025 10.455 29.545C12.8975 31.99 16.2725 33.5 20 33.5C23.7275 33.5 27.1025 31.99 29.545 29.545L32.7275 32.7275Z" fill="#FE64D8"/>
<path d="M13.635 13.6346C15.3925 11.8796 17.6975 10.9996 20 10.9971C22.3025 10.9996 24.6075 11.8771 26.365 13.6346C28.12 15.3921 29 17.6971 29.0025 19.9996C29 22.3021 28.1225 24.6071 26.365 26.3646C24.6075 28.1196 22.3025 28.9996 20 29.0021C17.6975 28.9996 15.3925 28.1221 13.635 26.3646L20 19.9996L13.635 13.6346Z" fill="#171923"/>
</svg>
