<svg width="40" height="40" viewBox="0 0 40 40" fill="none" xmlns="http://www.w3.org/2000/svg">
<path d="M20 36C11.177 36 4 28.8216 4 19.9991C4 16.7202 4.98464 13.5669 6.84863 10.8829C7.02228 10.6316 7.36774 10.5688 7.61898 10.7443C7.87022 10.9198 7.93303 11.2634 7.75753 11.5146C6.02471 14.014 5.10842 16.9474 5.10842 19.9991C5.10842 28.2101 11.7885 34.8898 20 34.8898C28.2115 34.8898 34.8916 28.2101 34.8916 19.9991C34.8916 11.788 28.2115 5.10835 20 5.10835C19.2241 5.10835 18.4445 5.16931 17.6834 5.28754C17.3841 5.33372 17.0978 5.12867 17.0498 4.82572C17.0017 4.52277 17.2086 4.24014 17.5116 4.19211C18.33 4.06465 19.1668 4 20 4C28.823 4 36 11.1766 36 19.9991C36 28.8216 28.823 36 20 36Z" fill="white"/>
<path d="M20.1575 7.84424C13.4442 7.84424 8 13.2863 8 20.001C8 23.2762 9.2987 26.2484 11.4065 28.4337C11.6448 24.911 11.8961 20.2707 12.2009 18.8022C12.2637 18.4992 12.1529 18.1889 11.9016 17.9727L10.6343 16.8736C10.2113 16.5079 10.2113 15.913 10.6343 15.5454C11.0574 15.1797 11.7409 15.1797 12.164 15.5454L13.1541 16.4044C13.5292 16.7295 14.124 16.7757 14.5507 16.5023C16.1967 15.4494 18.1328 14.8416 20.2074 14.8416C22.2579 14.8416 24.1755 15.4346 25.8086 16.4672C26.2353 16.7369 26.8265 16.6907 27.1996 16.3675L28.1455 15.5454C28.5685 15.1797 29.2521 15.1797 29.6751 15.5454C30.0982 15.9112 30.0982 16.506 29.6751 16.8736L28.4743 17.9155C28.2194 18.1371 28.1085 18.4549 28.1787 18.7634C28.5113 20.2098 28.853 24.6727 29.1578 28.1677C31.1161 26.0101 32.3094 23.1451 32.3094 20.001C32.315 13.2863 26.8727 7.84424 20.1575 7.84424Z" fill="#F0392D"/>
<path d="M24.2758 19.0459C23.4704 19.0459 22.8164 19.6998 22.8164 20.5052C22.8164 21.3106 23.4704 21.9646 24.2758 21.9646C25.0813 21.9646 25.7352 21.3106 25.7352 20.5052C25.7352 19.698 25.0813 19.0459 24.2758 19.0459Z" fill="white"/>
<path d="M17.7657 19.8402C17.7657 19.6628 17.6973 19.4984 17.5772 19.3728L17.5588 19.3543C17.2909 19.0957 16.8605 19.105 16.6037 19.3673L16.4263 19.5446L16.2508 19.3691C16.1215 19.2361 15.9479 19.1641 15.7631 19.1641C15.5858 19.1641 15.4214 19.2324 15.2958 19.3525L15.2773 19.371C15.0186 19.6388 15.0279 20.0692 15.2902 20.326L15.4676 20.5033L15.2958 20.6751C14.9799 20.991 15.0574 21.3974 15.2958 21.6357C15.4232 21.7631 15.5987 21.8444 15.7816 21.8444C15.9423 21.8444 16.1086 21.7816 16.2545 21.6357L16.4263 21.4639L16.5981 21.6357C16.914 21.9516 17.3205 21.874 17.5588 21.6357C17.6862 21.5082 17.7675 21.3327 17.7675 21.1499C17.7675 20.9891 17.7066 20.8229 17.5588 20.677L17.387 20.5052L17.5625 20.3297C17.6936 20.1985 17.7675 20.0249 17.7657 19.8402Z" fill="white"/>
</svg>
