<svg width="1024" height="128" viewBox="0 0 148 32" fill="none" xmlns="http://www.w3.org/2000/svg">
<path d="M46.6742 22.9266H42.8908L38.6406 10.7754H40.901L44.6361 22.0436H44.9307L48.6659 10.7754H50.9263L46.6742 22.9266Z" fill="#252525"/>
<path d="M52.7929 21.1622H57.0672V12.5392H53.2338V10.7751H58.9829V21.1622H62.9626V22.9263H52.791V21.1622H52.7929ZM56.2816 7.15078C56.2816 6.67788 56.4502 6.27333 56.7856 5.93898C57.1209 5.60462 57.5267 5.43652 58.001 5.43652C58.4753 5.43652 58.881 5.60462 59.2164 5.93898C59.5517 6.27333 59.7203 6.67788 59.7203 7.15078C59.7203 7.62552 59.5517 8.02822 59.2164 8.36258C58.881 8.69693 58.4753 8.86503 58.001 8.86503C57.5248 8.86503 57.1209 8.69693 56.7856 8.36258C56.4484 8.02822 56.2816 7.62367 56.2816 7.15078Z" fill="#252525"/>
<path d="M74.9343 21.036H74.6397C74.4433 21.411 74.1932 21.738 73.8912 22.0151C73.5874 22.2922 73.2613 22.5212 72.9092 22.7004C72.5572 22.8796 72.1848 23.0144 71.792 23.105C71.3992 23.1955 71.0213 23.2398 70.6619 23.2398C69.8429 23.2398 69.0814 23.1013 68.3774 22.8242C67.6734 22.5471 67.0545 22.1462 66.5228 21.6235C65.9911 21.1007 65.5723 20.4523 65.2703 19.6765C64.9665 18.9006 64.8164 18.0139 64.8164 17.0183V16.6266C64.8164 15.6476 64.972 14.7683 65.2833 13.9925C65.5946 13.2166 66.0114 12.5627 66.5358 12.0325C67.0601 11.5024 67.6734 11.0978 68.3793 10.8207C69.0833 10.5436 69.8281 10.4051 70.6155 10.4051C71.4511 10.4051 72.233 10.5898 72.9611 10.9556C73.6893 11.3232 74.2506 11.8903 74.6434 12.6587H74.938V5.75H76.8538V22.8981H74.938V21.036H74.9343ZM70.8564 21.4277C71.4289 21.4277 71.9625 21.3224 72.4535 21.1099C72.9444 20.8975 73.3743 20.5945 73.743 20.2029C74.1117 19.8113 74.4026 19.3421 74.6156 18.7953C74.8287 18.2485 74.9343 17.6408 74.9343 16.9702V16.6765C74.9343 16.0244 74.8268 15.4241 74.6156 14.8754C74.4026 14.3287 74.1117 13.8595 73.743 13.466C73.3743 13.0744 72.9407 12.7677 72.4405 12.5479C71.9403 12.3281 71.4122 12.2172 70.8564 12.2172C70.282 12.2172 69.7466 12.3244 69.2463 12.535C68.7461 12.7474 68.3126 13.0504 67.9439 13.442C67.5752 13.8336 67.288 14.2991 67.0842 14.8385C66.8785 15.3779 66.7766 15.9746 66.7766 16.6266V17.0183C66.7766 17.7036 66.8785 18.3169 67.0842 18.8563C67.288 19.3957 67.5752 19.8575 67.9439 20.2399C68.3126 20.6241 68.7424 20.9178 69.2334 21.121C69.7262 21.3261 70.2654 21.4277 70.8564 21.4277Z" fill="#252525"/>
<path d="M81.023 17.4385C81.073 18.6466 81.4491 19.6183 82.1532 20.3535C82.8572 21.0887 83.8392 21.4563 85.1009 21.4563C85.6734 21.4563 86.1736 21.3916 86.5998 21.2605C87.0259 21.1293 87.389 20.9501 87.6929 20.7211C87.9949 20.492 88.2413 20.2278 88.4303 19.9249C88.6193 19.6238 88.7693 19.3005 88.8842 18.9569L90.7018 19.4465C90.3572 20.5733 89.7235 21.4914 88.7971 22.2026C87.8708 22.9138 86.622 23.2684 85.0509 23.2684C84.1819 23.2684 83.3834 23.117 82.6552 22.8159C81.9253 22.5147 81.299 22.0843 80.7747 21.5302C80.2504 20.976 79.8409 20.3147 79.5463 19.5462C79.2517 18.7796 79.1035 17.9299 79.1035 16.9988V16.4114C79.1035 15.5617 79.2554 14.7711 79.5574 14.0358C79.8594 13.3006 80.2819 12.6689 80.8229 12.1369C81.3639 11.6067 81.9975 11.1892 82.7275 10.8881C83.4556 10.587 84.2468 10.4355 85.099 10.4355C86.0977 10.4355 86.9629 10.6203 87.691 10.986C88.4192 11.3536 89.0176 11.8062 89.4845 12.3456C89.9514 12.885 90.296 13.4724 90.5165 14.1097C90.737 14.747 90.8481 15.3345 90.8481 15.8739V17.4422H81.023V17.4385ZM85.1009 12.2459C84.5599 12.2459 84.0559 12.3308 83.589 12.5026C83.1221 12.6744 82.7127 12.9146 82.3607 13.2249C82.0086 13.5352 81.7215 13.8991 81.501 14.3148C81.2805 14.7304 81.136 15.1848 81.0711 15.6744H88.9342C88.9009 15.1516 88.7749 14.6787 88.5526 14.2538C88.3321 13.829 88.0449 13.4706 87.6929 13.1769C87.3409 12.8832 86.9388 12.6541 86.4886 12.4915C86.0384 12.3271 85.577 12.2459 85.1009 12.2459Z" fill="#252525"/>
<path d="M105.173 16.9987C105.173 18.011 105.004 18.9051 104.669 19.681C104.334 20.4568 103.887 21.1107 103.33 21.6409C102.772 22.1711 102.122 22.5756 101.377 22.8527C100.632 23.1298 99.8574 23.2683 99.0552 23.2683C98.2363 23.2683 97.4581 23.1298 96.7207 22.8527C95.9833 22.5756 95.3367 22.1711 94.779 21.6409C94.2214 21.1107 93.7748 20.4568 93.4395 19.681C93.1041 18.9051 92.9355 18.011 92.9355 16.9987V16.705C92.9355 15.7094 93.1041 14.8227 93.4395 14.0468C93.7748 13.271 94.2251 12.6134 94.7902 12.074C95.3552 11.5346 96.0056 11.1263 96.743 10.8492C97.4804 10.5721 98.2493 10.4336 99.0534 10.4336C99.8556 10.4336 100.626 10.5721 101.362 10.8492C102.099 11.1263 102.75 11.5346 103.315 12.074C103.88 12.6134 104.33 13.271 104.665 14.0468C105.001 14.8227 105.169 15.7094 105.169 16.705V16.9987H105.173ZM99.0571 21.4562C99.6462 21.4562 100.191 21.3546 100.691 21.1495C101.191 20.9463 101.629 20.6471 102.005 20.2555C102.381 19.8638 102.675 19.3946 102.889 18.8478C103.102 18.3011 103.207 17.6841 103.207 16.9987V16.705C103.207 16.0529 103.1 15.4526 102.889 14.904C102.675 14.3572 102.381 13.888 102.005 13.4945C101.629 13.1029 101.186 12.7962 100.678 12.5764C100.171 12.3566 99.6296 12.2458 99.0571 12.2458C98.4827 12.2458 97.9436 12.3566 97.4359 12.5764C96.9282 12.7962 96.4854 13.1029 96.1093 13.4945C95.7314 13.8861 95.4368 14.3572 95.2256 14.904C95.0125 15.4507 94.9069 16.0511 94.9069 16.705V16.9987C94.9069 17.6841 95.0125 18.3011 95.2256 18.8478C95.4386 19.3946 95.7332 19.8638 96.1093 20.2555C96.4854 20.6471 96.9245 20.9463 97.4229 21.1495C97.9213 21.3546 98.466 21.4562 99.0571 21.4562Z" fill="#252525"/>
<path d="M109.695 22.9264H107.779V5.77832H109.695V12.6871H109.99C110.416 11.9518 111.005 11.394 111.759 11.0097C112.513 10.6255 113.332 10.4334 114.216 10.4334C114.97 10.4334 115.681 10.5719 116.354 10.849C117.025 11.1261 117.619 11.527 118.134 12.0498C118.649 12.5725 119.059 13.2172 119.363 13.9857C119.667 14.7541 119.817 15.626 119.817 16.6069V17.0965C119.817 18.0921 119.668 18.9751 119.374 19.7417C119.079 20.5102 118.674 21.1549 118.158 21.6776C117.642 22.2004 117.041 22.5957 116.352 22.8654C115.665 23.1351 114.935 23.27 114.166 23.27C113.773 23.27 113.371 23.2256 112.961 23.1351C112.552 23.0446 112.163 22.9061 111.794 22.7195C111.426 22.5311 111.085 22.3039 110.775 22.0342C110.464 21.7645 110.201 21.443 109.99 21.0662H109.695V22.9264ZM113.773 21.456C114.362 21.456 114.903 21.3544 115.394 21.1493C115.885 20.9461 116.315 20.6561 116.684 20.2793C117.052 19.9043 117.34 19.4462 117.543 18.9068C117.747 18.3674 117.851 17.7633 117.851 17.0946V16.6051C117.851 15.9512 117.749 15.36 117.543 14.8299C117.338 14.2997 117.052 13.8416 116.684 13.4574C116.315 13.0731 115.881 12.7757 115.381 12.5633C114.881 12.3509 114.345 12.2456 113.771 12.2456C113.197 12.2456 112.665 12.3564 112.174 12.5762C111.683 12.796 111.253 13.1027 110.885 13.4943C110.516 13.8859 110.225 14.357 110.012 14.9038C109.799 15.4505 109.693 16.0509 109.693 16.7048V16.9985C109.693 17.6691 109.799 18.2768 110.012 18.8236C110.225 19.3704 110.516 19.8396 110.885 20.2312C111.253 20.6229 111.683 20.9258 112.174 21.1382C112.667 21.3507 113.199 21.456 113.773 21.456Z" fill="#252525"/>
<path d="M130.972 10.7754H132.888V22.9266H130.972V20.7229H130.678C130.285 21.5061 129.768 22.1268 129.13 22.5849C128.491 23.0412 127.682 23.2702 126.698 23.2702C126.025 23.2702 125.408 23.1594 124.843 22.9396C124.278 22.7197 123.795 22.3891 123.394 21.9476C122.992 21.5061 122.681 20.9593 122.461 20.3072C122.24 19.6533 122.129 18.8941 122.129 18.0296V10.7754H124.045V17.782C124.045 19.0566 124.306 19.9876 124.83 20.5751C125.355 21.1625 126.157 21.4562 127.239 21.4562C128.402 21.4562 129.316 21.0609 129.979 20.2684C130.642 19.476 130.974 18.4193 130.974 17.0967V10.7754H130.972Z" fill="#252525"/>
<path d="M146.082 21.0645H145.788C145.395 21.7998 144.858 22.3502 144.178 22.7178C143.498 23.0854 142.757 23.2683 141.954 23.2683C141.135 23.2683 140.365 23.1298 139.644 22.8527C138.923 22.5756 138.288 22.1747 137.739 21.652C137.191 21.1292 136.757 20.4808 136.437 19.705C136.118 18.9291 135.957 18.0424 135.957 17.0468V16.6551C135.957 15.6761 136.12 14.7968 136.448 14.021C136.776 13.2451 137.209 12.5912 137.75 12.061C138.292 11.5309 138.921 11.1263 139.642 10.8492C140.363 10.5721 141.117 10.4336 141.903 10.4336C142.786 10.4336 143.561 10.6257 144.224 11.0099C144.887 11.3942 145.408 11.9539 145.784 12.6872H146.079V10.7753H147.994V25.9136C147.994 26.4678 147.818 26.9259 147.466 27.2861C147.114 27.6445 146.659 27.8255 146.103 27.8255H138.167V26.0614H145.415C145.858 26.0614 146.079 25.8157 146.079 25.3262V21.0645H146.082ZM142.004 21.4562C142.577 21.4562 143.111 21.3509 143.601 21.1384C144.092 20.926 144.522 20.6231 144.891 20.2314C145.26 19.8398 145.551 19.3706 145.764 18.8238C145.977 18.277 146.082 17.6693 146.082 16.9987V16.705C146.082 16.0529 145.975 15.4526 145.764 14.904C145.551 14.3572 145.26 13.888 144.891 13.4945C144.522 13.1029 144.089 12.7962 143.589 12.5764C143.088 12.3566 142.56 12.2458 142.004 12.2458C141.43 12.2458 140.895 12.3529 140.394 12.5635C139.894 12.7759 139.461 13.0789 139.092 13.4705C138.723 13.8621 138.436 14.3276 138.232 14.867C138.027 15.4064 137.925 16.0031 137.925 16.6551V17.0468C137.925 17.7321 138.027 18.3454 138.232 18.8848C138.436 19.4242 138.723 19.886 139.092 20.2684C139.461 20.6526 139.89 20.9463 140.381 21.1495C140.874 21.3546 141.415 21.4562 142.004 21.4562Z" fill="#252525"/>
<path d="M16.0467 32C7.19796 32 0 24.8216 0 15.9991C0 12.7202 0.987519 9.56693 2.85695 6.88287C3.03111 6.63165 3.37757 6.56884 3.62955 6.74433C3.88152 6.91982 3.94452 7.26341 3.76851 7.51463C2.03062 10.014 1.11165 12.9474 1.11165 15.9991C1.11165 24.2101 7.81122 30.8898 16.0467 30.8898C24.2822 30.8898 30.9818 24.2101 30.9818 15.9991C30.9818 7.78803 24.2822 1.10835 16.0467 1.10835C15.2686 1.10835 14.4867 1.16931 13.7234 1.28754C13.4232 1.33372 13.136 1.12867 13.0879 0.825723C13.0397 0.522773 13.2472 0.240143 13.5511 0.192115C14.3718 0.0646539 15.2111 0 16.0467 0C24.8955 0 32.0934 7.17659 32.0934 15.9991C32.0934 24.8216 24.8955 32 16.0467 32Z" fill="#252525"/>
<path d="M16.0465 3.84375C9.31359 3.84375 3.85352 9.28577 3.85352 16.0005C3.85352 19.2757 5.156 22.248 7.27 24.4333C7.50901 20.9105 7.76098 16.2702 8.06668 14.8017C8.12968 14.4987 8.01851 14.1884 7.76654 13.9723L6.49555 12.8731C6.07127 12.5074 6.07127 11.9126 6.49555 11.545C6.91983 11.1792 7.60535 11.1792 8.02963 11.545L9.02271 12.4039C9.39882 12.729 9.9954 12.7752 10.4234 12.5018C12.0742 11.4489 14.0159 10.8412 16.0965 10.8412C18.1531 10.8412 20.0763 11.4341 21.7141 12.4667C22.1421 12.7364 22.735 12.6903 23.1092 12.367L24.0578 11.545C24.4821 11.1792 25.1676 11.1792 25.5919 11.545C26.0162 11.9107 26.0162 12.5055 25.5919 12.8731L24.3876 13.915C24.1319 14.1367 24.0208 14.4544 24.0912 14.7629C24.4247 16.2093 24.7674 20.6722 25.0731 24.1673C27.0371 22.0097 28.2339 19.1446 28.2339 16.0005C28.2395 9.28577 22.7813 3.84375 16.0465 3.84375Z" fill="#F0392D"/>
<path d="M20.1766 15.0459C19.3688 15.0459 18.7129 15.6998 18.7129 16.5052C18.7129 17.3106 19.3688 17.9646 20.1766 17.9646C20.9844 17.9646 21.6402 17.3106 21.6402 16.5052C21.6402 15.698 20.9844 15.0459 20.1766 15.0459Z" fill="#333333"/>
<path d="M13.6475 15.8402C13.6475 15.6628 13.579 15.4984 13.4585 15.3728L13.44 15.3543C13.1714 15.0957 12.7397 15.105 12.4821 15.3673L12.3043 15.5446L12.1283 15.3691C11.9986 15.2361 11.8244 15.1641 11.6391 15.1641C11.4613 15.1641 11.2964 15.2324 11.1704 15.3525L11.1519 15.371C10.8925 15.6388 10.9017 16.0692 11.1648 16.326L11.3427 16.5033L11.1704 16.6751C10.8536 16.991 10.9314 17.3974 11.1704 17.6357C11.2982 17.7631 11.4742 17.8444 11.6577 17.8444C11.8188 17.8444 11.9856 17.7816 12.132 17.6357L12.3043 17.4639L12.4766 17.6357C12.7934 17.9516 13.201 17.874 13.44 17.6357C13.5678 17.5082 13.6494 17.3327 13.6494 17.1499C13.6494 16.9891 13.5882 16.8229 13.44 16.677L13.2677 16.5052L13.4437 16.3297C13.5753 16.1985 13.6494 16.0249 13.6475 15.8402Z" fill="#333333"/>
</svg>
