<svg width="16" height="16" viewBox="0 0 16 16" fill="none" xmlns="http://www.w3.org/2000/svg">
<path d="M8 16C3.5885 16 0 12.4108 0 7.99954C0 6.3601 0.492322 4.78347 1.42432 3.44144C1.51114 3.31582 1.68387 3.28442 1.80949 3.37216C1.93511 3.45991 1.96652 3.6317 1.87877 3.75732C1.01235 5.00698 0.554209 6.47371 0.554209 7.99954C0.554209 12.1051 3.89424 15.4449 8 15.4449C12.1058 15.4449 15.4458 12.1051 15.4458 7.99954C15.4458 3.89401 12.1058 0.554177 8 0.554177C7.61205 0.554177 7.22226 0.584656 6.8417 0.643768C6.69207 0.666859 6.5489 0.564336 6.52488 0.412861C6.50087 0.261387 6.60432 0.120072 6.7558 0.0960573C7.16499 0.032327 7.58342 0 8 0C12.4115 0 16 3.58829 16 7.99954C16 12.4108 12.4115 16 8 16Z" fill="#252525"/>
<path d="M8.07875 1.92212C4.72209 1.92212 2 4.64313 2 8.00051C2 9.6381 2.64935 11.1242 3.70327 12.2169C3.82242 10.4555 3.94804 8.13536 4.10045 7.40108C4.13186 7.2496 4.07644 7.09443 3.95081 6.98637L3.31717 6.43681C3.10565 6.25393 3.10565 5.95652 3.31717 5.77272C3.52869 5.58984 3.87045 5.58984 4.08198 5.77272L4.57707 6.20221C4.76458 6.36477 5.062 6.38786 5.27537 6.25116C6.09837 5.72469 7.06639 5.42082 8.10369 5.42082C9.12897 5.42082 10.0878 5.71731 10.9043 6.23361C11.1177 6.36846 11.4132 6.34537 11.5998 6.18374L12.0727 5.77272C12.2843 5.58984 12.626 5.58984 12.8376 5.77272C13.0491 5.9556 13.0491 6.25301 12.8376 6.43681L12.2372 6.95774C12.1097 7.06857 12.0543 7.22744 12.0894 7.38168C12.2556 8.10488 12.4265 10.3364 12.5789 12.0839C13.558 11.0051 14.1547 9.57253 14.1547 8.00051C14.1575 4.64313 11.4363 1.92212 8.07875 1.92212Z" fill="#F0392D"/>
<path d="M10.1379 7.52295C9.73519 7.52295 9.4082 7.84991 9.4082 8.25262C9.4082 8.65532 9.73519 8.98228 10.1379 8.98228C10.5406 8.98228 10.8676 8.65532 10.8676 8.25262C10.8676 7.84899 10.5406 7.52295 10.1379 7.52295Z" fill="#252525"/>
<path d="M6.88284 7.92008C6.88284 7.83141 6.84866 7.74921 6.78862 7.6864L6.77938 7.67717C6.64545 7.54786 6.43023 7.55248 6.30184 7.68363L6.21317 7.7723L6.12542 7.68455C6.06076 7.61805 5.97393 7.58203 5.88157 7.58203C5.79289 7.58203 5.71069 7.61621 5.64788 7.67624L5.63864 7.68548C5.50932 7.8194 5.51394 8.03461 5.6451 8.16299L5.73378 8.25166L5.64788 8.33756C5.48993 8.4955 5.52872 8.69869 5.64788 8.81784C5.71161 8.88157 5.79936 8.92221 5.8908 8.92221C5.97116 8.92221 6.0543 8.89081 6.12727 8.81784L6.21317 8.73195L6.29907 8.81784C6.45702 8.97578 6.66023 8.93699 6.77938 8.81784C6.84312 8.75411 6.88376 8.66637 6.88376 8.57493C6.88376 8.49457 6.85328 8.41145 6.77938 8.33848L6.69348 8.25258L6.78123 8.16484C6.84681 8.09926 6.88376 8.01244 6.88284 7.92008Z" fill="#252525"/>
</svg>
