<svg width="16" height="16" viewBox="0 0 16 16" fill="none" xmlns="http://www.w3.org/2000/svg">
<path d="M8 16C3.5885 16 0 12.4108 0 7.99954C0 6.3601 0.492322 4.78347 1.42432 3.44144C1.51114 3.31582 1.68387 3.28442 1.80949 3.37216C1.93511 3.45991 1.96652 3.6317 1.87877 3.75732C1.01235 5.00698 0.554209 6.47371 0.554209 7.99954C0.554209 12.1051 3.89424 15.4449 8 15.4449C12.1058 15.4449 15.4458 12.1051 15.4458 7.99954C15.4458 3.89401 12.1058 0.554177 8 0.554177C7.61205 0.554177 7.22226 0.584656 6.8417 0.643768C6.69207 0.666859 6.5489 0.564336 6.52488 0.412861C6.50087 0.261387 6.60432 0.120072 6.7558 0.0960573C7.16499 0.032327 7.58342 0 8 0C12.4115 0 16 3.58829 16 7.99954C16 12.4108 12.4115 16 8 16Z" fill="#F0392D"/>
<path d="M8.07875 1.92188C4.72209 1.92188 2 4.64288 2 8.00027C2 9.63786 2.64935 11.124 3.70327 12.2166C3.82242 10.4553 3.94804 8.13512 4.10045 7.40083C4.13186 7.24936 4.07644 7.09419 3.95081 6.98613L3.31717 6.43657C3.10565 6.25369 3.10565 5.95628 3.31717 5.77248C3.52869 5.5896 3.87045 5.5896 4.08198 5.77248L4.57707 6.20197C4.76458 6.36452 5.062 6.38761 5.27537 6.25092C6.09837 5.72445 7.06639 5.42058 8.10369 5.42058C9.12897 5.42058 10.0878 5.71706 10.9043 6.23337C11.1177 6.36822 11.4132 6.34513 11.5998 6.18349L12.0727 5.77248C12.2843 5.5896 12.626 5.5896 12.8376 5.77248C13.0491 5.95536 13.0491 6.25277 12.8376 6.43657L12.2372 6.95749C12.1097 7.06833 12.0543 7.22719 12.0894 7.38144C12.2556 8.10464 12.4265 10.3361 12.5789 12.0836C13.558 11.0048 14.1547 9.57228 14.1547 8.00027C14.1575 4.64288 11.4363 1.92188 8.07875 1.92188Z" fill="#F0392D"/>
<path d="M10.1379 7.52246C9.73519 7.52246 9.4082 7.84943 9.4082 8.25213C9.4082 8.65483 9.73519 8.9818 10.1379 8.9818C10.5406 8.9818 10.8676 8.65483 10.8676 8.25213C10.8676 7.8485 10.5406 7.52246 10.1379 7.52246Z" fill="#F0392D"/>
<path d="M6.88235 7.92008C6.88235 7.83141 6.84817 7.74921 6.78813 7.6864L6.7789 7.67717C6.64496 7.54786 6.42974 7.55248 6.30135 7.68363L6.21268 7.7723L6.12493 7.68455C6.06027 7.61805 5.97345 7.58203 5.88108 7.58203C5.7924 7.58203 5.7102 7.61621 5.64739 7.67624L5.63815 7.68548C5.50883 7.8194 5.51345 8.03461 5.64462 8.16299L5.73329 8.25166L5.64739 8.33756C5.48944 8.4955 5.52823 8.69869 5.64739 8.81784C5.71112 8.88157 5.79887 8.92221 5.89031 8.92221C5.97067 8.92221 6.05381 8.89081 6.12678 8.81784L6.21268 8.73195L6.29858 8.81784C6.45653 8.97578 6.65974 8.93699 6.7789 8.81784C6.84263 8.75411 6.88327 8.66637 6.88327 8.57493C6.88327 8.49457 6.85279 8.41145 6.7789 8.33848L6.69299 8.25258L6.78074 8.16484C6.84632 8.09926 6.88327 8.01244 6.88235 7.92008Z" fill="#F0392D"/>
</svg>
