<svg width="24" height="24" viewBox="0 0 24 24" fill="none" xmlns="http://www.w3.org/2000/svg">
<path d="M21 2V8M21 8H15M21 8L18.3597 5.63067C16.9787 4.25209 15.187 3.35964 13.2547 3.08779C11.3223 2.81593 9.35394 3.17941 7.64612 4.12343C5.93831 5.06746 4.58358 6.54091 3.78606 8.32177C2.98854 10.1026 2.79143 12.0944 3.22442 13.997C3.65742 15.8996 4.69707 17.61 6.18673 18.8704C7.67638 20.1308 9.53534 20.873 11.4835 20.9851C13.4317 21.0972 15.3635 20.5732 16.988 19.492C18.6124 18.4108 19.8414 16.831 20.4899 14.9907" stroke="#001A72" stroke-width="1.5" stroke-linecap="round" stroke-linejoin="round"/>
</svg>
