<svg width="24" height="24" viewBox="0 0 24 24" fill="none" xmlns="http://www.w3.org/2000/svg">
<path d="M4.20854 17.8104L3.46191 17.7393L4.20854 17.8104ZM19.7915 17.8104L20.5381 17.7393L19.7915 17.8104ZM19.0296 9.81038L18.2829 9.88149L19.0296 9.81038ZM4.97044 9.81038L5.71706 9.88149L4.97044 9.81038ZM7.25 8C7.25 8.41421 7.58579 8.75 8 8.75C8.41421 8.75 8.75 8.41421 8.75 8H7.25ZM15.25 8C15.25 8.41421 15.5858 8.75 16 8.75C16.4142 8.75 16.75 8.41421 16.75 8H15.25ZM8.75 11C8.75 10.5858 8.41421 10.25 8 10.25C7.58579 10.25 7.25 10.5858 7.25 11H8.75ZM7.25 11.01C7.25 11.4242 7.58579 11.76 8 11.76C8.41421 11.76 8.75 11.4242 8.75 11.01H7.25ZM16.75 11C16.75 10.5858 16.4142 10.25 16 10.25C15.5858 10.25 15.25 10.5858 15.25 11H16.75ZM15.25 11.01C15.25 11.4242 15.5858 11.76 16 11.76C16.4142 11.76 16.75 11.4242 16.75 11.01H15.25ZM6.96143 8.75H17.0386V7.25H6.96143V8.75ZM18.2829 9.88149L19.0448 17.8815L20.5381 17.7393L19.7762 9.73928L18.2829 9.88149ZM17.8005 19.25H6.19953V20.75H17.8005V19.25ZM4.95516 17.8815L5.71706 9.88149L4.22382 9.73928L3.46191 17.7393L4.95516 17.8815ZM6.19953 19.25C5.46235 19.25 4.88527 18.6153 4.95516 17.8815L3.46191 17.7393C3.30815 19.3538 4.57774 20.75 6.19953 20.75V19.25ZM19.0448 17.8815C19.1147 18.6153 18.5377 19.25 17.8005 19.25V20.75C19.4223 20.75 20.6918 19.3538 20.5381 17.7393L19.0448 17.8815ZM17.0386 8.75C17.683 8.75 18.2218 9.23994 18.2829 9.88149L19.7762 9.73928C19.6418 8.32788 18.4564 7.25 17.0386 7.25V8.75ZM6.96143 7.25C5.54365 7.25 4.35824 8.32788 4.22382 9.73928L5.71706 9.88149C5.77816 9.23994 6.31698 8.75 6.96143 8.75V7.25ZM8.75 7C8.75 5.20507 10.2051 3.75 12 3.75V2.25C9.37665 2.25 7.25 4.37665 7.25 7H8.75ZM12 3.75C13.7949 3.75 15.25 5.20507 15.25 7H16.75C16.75 4.37665 14.6234 2.25 12 2.25V3.75ZM7.25 7V8H8.75V7H7.25ZM15.25 7V8H16.75V7H15.25ZM7.25 11V11.01H8.75V11H7.25ZM15.25 11V11.01H16.75V11H15.25Z" fill="#001A72"/>
</svg>
