<svg width="24" height="24" viewBox="0 0 24 24" fill="none" xmlns="http://www.w3.org/2000/svg">
<path d="M5 11V10.25C4.58579 10.25 4.25 10.5858 4.25 11H5ZM19 11H19.75C19.75 10.5858 19.4142 10.25 19 10.25V11ZM19 21V21.75C19.4142 21.75 19.75 21.4142 19.75 21H19ZM5 21H4.25C4.25 21.4142 4.58579 21.75 5 21.75V21ZM5 11.75H19V10.25H5V11.75ZM18.25 11V21H19.75V11H18.25ZM19 20.25H5V21.75H19V20.25ZM5.75 21V11H4.25V21H5.75ZM8.75 7C8.75 5.20507 10.2051 3.75 12 3.75V2.25C9.37665 2.25 7.25 4.37665 7.25 7H8.75ZM12 3.75C13.7949 3.75 15.25 5.20507 15.25 7H16.75C16.75 4.37665 14.6234 2.25 12 2.25V3.75ZM7.25 7V11H8.75V7H7.25ZM15.25 7V11H16.75V7H15.25Z" fill="#001A72"/>
</svg>
