<svg width="16" height="17" viewBox="0 0 16 17" fill="none" xmlns="http://www.w3.org/2000/svg">
<g clip-path="url(#clip0_895_146110)">
<path d="M3.33333 12.4999H12.6667V7.85392C12.6667 5.26525 10.5773 3.16659 8 3.16659C5.42267 3.16659 3.33333 5.26525 3.33333 7.85392V12.4999ZM8 1.83325C11.3133 1.83325 14 4.52859 14 7.85392V13.8333H2V7.85392C2 4.52859 4.68667 1.83325 8 1.83325ZM6.33333 14.4999H9.66667C9.66667 14.9419 9.49107 15.3659 9.17851 15.6784C8.86595 15.991 8.44203 16.1666 8 16.1666C7.55797 16.1666 7.13405 15.991 6.82149 15.6784C6.50893 15.3659 6.33333 14.9419 6.33333 14.4999V14.4999Z" fill="#ECC94B"/>
</g>
<defs>
<clipPath id="clip0_895_146110">
<rect width="16" height="16" fill="white" transform="translate(0 0.5)"/>
</clipPath>
</defs>
</svg>
