<svg width="14" height="14" viewBox="0 0 14 14" fill="none" xmlns="http://www.w3.org/2000/svg">
<path fill-rule="evenodd" clip-rule="evenodd" d="M13.125 7C13.125 10.3827 10.3827 13.125 7 13.125C3.61725 13.125 0.875 10.3827 0.875 7C0.875 3.61725 3.61725 0.875 7 0.875C10.3827 0.875 13.125 3.61725 13.125 7Z" fill="#40B6E0" fill-opacity="0.6"/>
<path fill-rule="evenodd" clip-rule="evenodd" d="M8.74983 8.12187C8.33858 8.52349 7.89933 8.7304 7.08733 8.74965C6.1782 8.7689 5.24983 8.11913 5.24983 7C5.24983 5.873 6.09945 5.24965 7.08733 5.24965C8.20076 5.24965 8.66232 5.73463 8.66232 5.73463L9.2015 5.10679C8.60055 4.61105 8.12706 4.375 7.08575 4.375C5.5475 4.375 4.375 5.56325 4.375 7C4.375 8.47175 5.5685 9.625 7.00175 9.625C8.13107 9.625 8.77013 9.26888 9.289 8.73338L8.74983 8.12187Z" fill="#231F20" fill-opacity="0.7"/>
</svg>
