<svg width="14" height="14" viewBox="0 0 14 14" fill="none" xmlns="http://www.w3.org/2000/svg">
    <path d="M3.72284 3.48394C4.65252 2.73906 5.80872 2.33404 7 2.33594C8.23959 2.33594 9.37884 2.76527 10.2772 3.48394L11.1248 2.63635L11.9496 3.46119L11.102 4.30877C11.719 5.08119 12.1054 6.01212 12.2166 6.99443C12.3279 7.97674 12.1596 8.97051 11.731 9.86137C11.3024 10.7522 10.631 11.504 9.79406 12.0301C8.9571 12.5562 7.98859 12.8354 7 12.8354C6.01141 12.8354 5.04291 12.5562 4.20595 12.0301C3.36899 11.504 2.69759 10.7522 2.26901 9.86137C1.84043 8.97051 1.67209 7.97674 1.78337 6.99443C1.89464 6.01212 2.28101 5.08119 2.898 4.30877L2.05042 3.46177L2.87525 2.63694L3.72284 3.48452V3.48394ZM7 11.6693C7.53623 11.6693 8.06721 11.5637 8.56263 11.3584C9.05804 11.1532 9.50818 10.8525 9.88735 10.4733C10.2665 10.0941 10.5673 9.64397 10.7725 9.14856C10.9777 8.65315 11.0833 8.12217 11.0833 7.58594C11.0833 7.04971 10.9777 6.51873 10.7725 6.02331C10.5673 5.5279 10.2665 5.07776 9.88735 4.69859C9.50818 4.31941 9.05804 4.01864 8.56263 3.81343C8.06721 3.60822 7.53623 3.5026 7 3.5026C5.91704 3.5026 4.87842 3.93281 4.11265 4.69859C3.34688 5.46436 2.91667 6.50297 2.91667 7.58594C2.91667 8.6689 3.34688 9.70752 4.11265 10.4733C4.87842 11.2391 5.91704 11.6693 7 11.6693ZM7.58334 7.0026H9.33334L6.41667 10.7943V8.16927H4.66667L7.58334 4.37469V7.0026ZM4.66667 0.585938H9.33334V1.7526H4.66667V0.585938Z" fill="#718096"/>
</svg>
