<svg width="14" height="14" viewBox="0 0 14 14" fill="none" xmlns="http://www.w3.org/2000/svg">
    <g clip-path="url(#clip0_82731_55390)">
        <path d="M8.16537 8.31627V9.53544C7.6374 9.34877 7.07236 9.29152 6.51768 9.36848C5.96301 9.44544 5.4349 9.65437 4.9777 9.97773C4.5205 10.3011 4.14757 10.7294 3.89021 11.2268C3.63285 11.7241 3.49859 12.2759 3.4987 12.8359L2.33203 12.8354C2.33185 12.123 2.49474 11.4201 2.80821 10.7805C3.12168 10.1409 3.57741 9.58148 4.14049 9.14521C4.70357 8.70893 5.35905 8.40735 6.0567 8.26356C6.75436 8.11978 7.47567 8.13761 8.16537 8.31569V8.31627ZM6.9987 7.58594C5.06495 7.58594 3.4987 6.01969 3.4987 4.08594C3.4987 2.15219 5.06495 0.585938 6.9987 0.585938C8.93245 0.585938 10.4987 2.15219 10.4987 4.08594C10.4987 6.01969 8.93245 7.58594 6.9987 7.58594ZM6.9987 6.41927C8.28787 6.41927 9.33203 5.3751 9.33203 4.08594C9.33203 2.79677 8.28787 1.7526 6.9987 1.7526C5.70953 1.7526 4.66536 2.79677 4.66536 4.08594C4.66536 5.3751 5.70953 6.41927 6.9987 6.41927ZM10.3779 11.6191L12.44 9.55702L13.2654 10.3819L10.3779 13.2694L8.31528 11.2067L9.1407 10.3819L10.3774 11.6191H10.3779Z" fill="#718096"/>
    </g>
    <defs>
        <clipPath id="clip0_82731_55390">
            <rect width="14" height="14" fill="white"/>
        </clipPath>
    </defs>
</svg>
