<svg width="12" height="12" viewBox="0 0 12 12" fill="none" xmlns="http://www.w3.org/2000/svg">
<g clip-path="url(#clip0_81388_85099)">
<path d="M6 7.5C6.82843 7.5 7.5 6.82843 7.5 6C7.5 5.17157 6.82843 4.5 6 4.5C5.17157 4.5 4.5 5.17157 4.5 6C4.5 6.82843 5.17157 7.5 6 7.5Z" fill="#01CCF5"/>
<path d="M6 0.75C3.1125 0.75 0.75 3.1125 0.75 6C0.75 8.8875 3.1125 11.25 6 11.25C8.8875 11.25 11.25 8.8875 11.25 6C11.25 3.1125 8.8875 0.75 6 0.75ZM6 8.25C4.7625 8.25 3.75 7.2375 3.75 6C3.75 4.7625 4.7625 3.75 6 3.75C7.2375 3.75 8.25 4.7625 8.25 6C8.25 7.2375 7.2375 8.25 6 8.25Z" fill="#FE64D8"/>
</g>
<defs>
<clipPath id="clip0_81388_85099">
<rect width="12" height="12" fill="white"/>
</clipPath>
</defs>
</svg>
