<svg width="17" height="16" viewBox="0 0 17 16" fill="none" xmlns="http://www.w3.org/2000/svg">
<g clip-path="url(#clip0_82412_59381)">
<path d="M5.16536 2.66536V1.33203H11.832V2.66536H15.1654V3.9987H13.832V13.9987C13.832 14.1755 13.7618 14.3451 13.6368 14.4701C13.5117 14.5951 13.3422 14.6654 13.1654 14.6654H3.83203C3.65522 14.6654 3.48565 14.5951 3.36063 14.4701C3.2356 14.3451 3.16536 14.1755 3.16536 13.9987V3.9987H1.83203V2.66536H5.16536ZM4.4987 3.9987V13.332H12.4987V3.9987H4.4987ZM6.4987 5.9987H7.83203V11.332H6.4987V5.9987ZM9.16536 5.9987H10.4987V11.332H9.16536V5.9987Z" fill="#C7222D"/>
</g>
<defs>
<clipPath id="clip0_82412_59381">
<rect width="16" height="16" fill="white" transform="translate(0.5)"/>
</clipPath>
</defs>
</svg>
