<svg width="17" height="16" viewBox="0 0 17 16" fill="none" xmlns="http://www.w3.org/2000/svg">
<g id="Group">
<path id="Vector" d="M3.12064 3.28516L4.0633 4.22782C3.09797 5.19316 2.5013 6.52649 2.5013 7.99916C2.5013 9.47249 3.09797 10.8058 4.0633 11.7705L3.1213 12.7125C1.91397 11.5065 1.16797 9.83982 1.16797 7.99916C1.16797 6.15849 1.91464 4.49182 3.12064 3.28516ZM13.882 3.28516C15.0886 4.49182 15.8346 6.15849 15.8346 7.99916C15.8346 9.83982 15.088 11.5072 13.882 12.7132L12.9393 11.7705C13.9046 10.8052 14.5013 9.47182 14.5013 7.99916C14.5013 6.52649 13.9046 5.19382 12.94 4.22849L13.8813 3.28582L13.882 3.28516ZM9.16797 3.33249V7.33249H11.168L7.83464 12.6658V8.66582H5.83464L9.16797 3.33249ZM5.00597 5.17049L5.9493 6.11382C5.46664 6.59582 5.16797 7.26249 5.16797 7.99916C5.16797 8.73582 5.46664 9.40249 5.9493 9.88449L5.00597 10.8278C4.28264 10.1038 3.83464 9.10382 3.83464 7.99916C3.83464 6.89449 4.28264 5.89449 5.00597 5.17049ZM11.9973 5.17116C12.7206 5.89516 13.168 6.89516 13.168 7.99916C13.168 9.10382 12.72 10.1038 11.9966 10.8278L11.0533 9.88449C11.536 9.40249 11.8346 8.73582 11.8346 7.99916C11.8346 7.26316 11.5366 6.59649 11.0546 6.11449L11.9973 5.17116Z" fill="#FE64D8"/>
</g>
</svg>
