<svg width="14" height="14" viewBox="0 0 14 14" fill="none" xmlns="http://www.w3.org/2000/svg">
<path d="M10.5013 10.5013V12.2513C10.5013 12.406 10.4398 12.5544 10.3304 12.6638C10.2211 12.7732 10.0727 12.8346 9.91797 12.8346H4.08464C3.92993 12.8346 3.78155 12.7732 3.67216 12.6638C3.56276 12.5544 3.5013 12.406 3.5013 12.2513V10.5013H1.7513C1.59659 10.5013 1.44822 10.4398 1.33882 10.3304C1.22943 10.2211 1.16797 10.0727 1.16797 9.91797V7.0013C1.16797 3.77955 3.77955 1.16797 7.0013 1.16797C10.2231 1.16797 12.8346 3.77955 12.8346 7.0013V9.91797C12.8346 10.0727 12.7732 10.2211 12.6638 10.3304C12.5544 10.4398 12.406 10.5013 12.2513 10.5013H10.5013ZM4.3763 8.16797C4.49121 8.16797 4.60499 8.14534 4.71115 8.10136C4.81731 8.05739 4.91377 7.99294 4.99502 7.91169C5.07627 7.83044 5.14072 7.73398 5.1847 7.62782C5.22867 7.52166 5.2513 7.40788 5.2513 7.29297C5.2513 7.17806 5.22867 7.06428 5.1847 6.95812C5.14072 6.85196 5.07627 6.7555 4.99502 6.67425C4.91377 6.593 4.81731 6.52855 4.71115 6.48457C4.60499 6.4406 4.49121 6.41797 4.3763 6.41797C4.14424 6.41797 3.92168 6.51016 3.75758 6.67425C3.59349 6.83834 3.5013 7.0609 3.5013 7.29297C3.5013 7.52503 3.59349 7.74759 3.75758 7.91169C3.92168 8.07578 4.14424 8.16797 4.3763 8.16797ZM9.6263 8.16797C9.74121 8.16797 9.85499 8.14534 9.96115 8.10136C10.0673 8.05739 10.1638 7.99294 10.245 7.91169C10.3263 7.83044 10.3907 7.73398 10.4347 7.62782C10.4787 7.52166 10.5013 7.40788 10.5013 7.29297C10.5013 7.17806 10.4787 7.06428 10.4347 6.95812C10.3907 6.85196 10.3263 6.7555 10.245 6.67425C10.1638 6.593 10.0673 6.52855 9.96115 6.48457C9.85499 6.4406 9.74121 6.41797 9.6263 6.41797C9.39424 6.41797 9.17168 6.51016 9.00758 6.67425C8.84349 6.83834 8.7513 7.0609 8.7513 7.29297C8.7513 7.52503 8.84349 7.74759 9.00758 7.91169C9.17168 8.07578 9.39424 8.16797 9.6263 8.16797Z" fill="#DD6B20"/>
</svg>
