<svg width="16" height="16" viewBox="0 0 16 16" fill="none" xmlns="http://www.w3.org/2000/svg">
<path d="M2 2H1V14H2V2Z" fill="#FE64D8"/>
<path d="M4 2H2V3H4V2Z" fill="#FE64D8"/>
<path d="M4 13H2V14H4V13Z" fill="#FE64D8"/>
<path d="M15 2H14V14H15V2Z" fill="#FE64D8"/>
<path d="M15 2H12V3H15V2Z" fill="#FE64D8"/>
<path d="M14 13H12V14H14V13Z" fill="#FE64D8"/>
<path d="M8 12.8008C10.7614 12.8008 13 10.5622 13 7.80078C13 5.03936 10.7614 2.80078 8 2.80078C5.23858 2.80078 3 5.03936 3 7.80078C3 10.5622 5.23858 12.8008 8 12.8008Z" fill="#01CCF5"/>
<path d="M10.1638 9.61437L10.1601 7.61899C10.1786 7.35658 10.1113 7.09526 9.96828 6.87447C9.82277 6.70084 9.60222 6.60837 9.37638 6.6263C9.21405 6.62171 9.05264 6.65232 8.90326 6.71603C8.77569 6.7741 8.66583 6.86502 8.58493 6.97948C8.49627 7.10966 8.43481 7.2564 8.40422 7.4109C8.36398 7.60618 8.34506 7.80525 8.34779 8.0046L8.35092 9.61437H7.65249L7.64884 7.61899C7.66726 7.35685 7.60066 7.09576 7.45892 6.87447C7.31436 6.70066 7.09426 6.60807 6.86892 6.62631C6.69938 6.62078 6.53087 6.65477 6.37672 6.72559C6.24489 6.79141 6.1345 6.89338 6.05844 7.01958C5.97218 7.16662 5.91415 7.32848 5.88735 7.49684C5.85115 7.71125 5.8342 7.92847 5.83671 8.1459L5.85882 9.6144H5.14504L5.14453 6.04297L5.70422 6.12618L5.80422 6.69125H5.84239C5.90005 6.58605 5.97325 6.49015 6.05953 6.4068C6.14203 6.32761 6.23505 6.26016 6.33596 6.20635C6.43697 6.15269 6.54475 6.11288 6.65639 6.088C6.76974 6.06252 6.88557 6.04972 7.00175 6.04981C7.26576 6.04034 7.52784 6.09815 7.76337 6.2178C7.97042 6.3351 8.12947 6.52168 8.21252 6.74469H8.24305C8.30552 6.62962 8.38589 6.52523 8.48117 6.43543C8.57249 6.3499 8.67512 6.27731 8.7862 6.21971C8.89667 6.16249 9.01395 6.11951 9.13523 6.0918C9.25791 6.06374 9.38336 6.04965 9.5092 6.0498C9.88125 6.0221 10.2474 6.15478 10.5153 6.4144C10.7697 6.74739 10.8907 7.16331 10.8547 7.5808L10.8584 9.61437L10.1638 9.61437Z" fill="#231F20"/>
</svg>
