<svg width="14" height="14" viewBox="0 0 14 14" fill="none" xmlns="http://www.w3.org/2000/svg">
    <path d="M2.33466 9.33333H11.668V2.91667H2.33466V9.33333ZM7.58466 10.5V11.6667H9.91799V12.8333H4.08466V11.6667H6.41799V10.5H1.74666C1.67006 10.4995 1.5943 10.484 1.52373 10.4542C1.45316 10.4244 1.38916 10.381 1.3354 10.3264C1.28165 10.2718 1.23919 10.2072 1.21046 10.1362C1.18173 10.0652 1.1673 9.98918 1.16799 9.91258V2.33742C1.16799 2.01308 1.43341 1.75 1.74666 1.75H12.256C12.5757 1.75 12.8347 2.01192 12.8347 2.33742V9.91258C12.8347 10.2369 12.5692 10.5 12.256 10.5H7.58466Z" fill="#718096"/>
</svg>
