<svg width="14" height="14" viewBox="0 0 14 14" fill="none" xmlns="http://www.w3.org/2000/svg">
<g clip-path="url(#clip0_82733_89770)">
<path fill-rule="evenodd" clip-rule="evenodd" d="M14 7C14 10.866 10.866 14 7 14C3.134 14 0 10.866 0 7C0 3.134 3.134 0 7 0C10.866 0 14 3.134 14 7Z" fill="#718096"/>
<path fill-rule="evenodd" clip-rule="evenodd" d="M10.9922 6.9997C10.9912 6.2507 10.6351 5 8.98163 5C8.11224 5 7.6576 5.5017 7.5986 5.5997C7.28363 5.19382 6.94412 5 6.1 5C5.63194 5 5.26528 5.09964 5 5.29893V5H4V10H5C4.96667 8.156 4.96667 7.1559 5 6.9997C5.05 6.7654 5.05 5.9997 6 5.9997C6.95 5.9997 6.999 6.5367 7 6.9997V10H8V6.9997C8 6.6857 7.95912 5.9997 8.98163 5.9997C10.0041 5.9997 10.0041 6.73931 10.0047 6.9997C10.0047 7.79012 10.0047 8.38293 10.0047 8.77814C10.0047 9.04967 10.0047 9.45695 10.0047 10H10.9972L10.9922 6.9997Z" fill="#E2E8F0"/>
</g>
<defs>
<clipPath id="clip0_82733_89770">
<rect width="14" height="14" fill="white"/>
</clipPath>
</defs>
</svg>
