<svg width="12" height="12" viewBox="0 0 12 12" fill="none" xmlns="http://www.w3.org/2000/svg">
<path d="M6 1C8.4853 1 10.5 3.01472 10.5 5.5C10.5 6.60155 10.1042 7.61065 9.44705 8.3929C10.0745 8.8078 10.4637 9.3377 10.4976 9.9175L10.5 10L6 11L1.5 10L1.50241 9.9175C1.53625 9.33775 1.92538 8.8079 2.55277 8.39295C1.89597 7.6111 1.5 6.6018 1.5 5.5C1.5 3.01472 3.51472 1 6 1ZM6 6.5C5.30965 6.5 4.75 6.8358 4.75 7.25C4.75 7.6642 5.30965 8 6 8C6.69035 8 7.25 7.6642 7.25 7.25C7.25 6.8358 6.69035 6.5 6 6.5ZM4.5 4C3.94772 4 3.5 4.33578 3.5 4.75C3.5 5.1642 3.94772 5.5 4.5 5.5C5.0523 5.5 5.5 5.1642 5.5 4.75C5.5 4.33578 5.0523 4 4.5 4ZM7.5 4C6.9477 4 6.5 4.33578 6.5 4.75C6.5 5.1642 6.9477 5.5 7.5 5.5C8.0523 5.5 8.5 5.1642 8.5 4.75C8.5 4.33578 8.0523 4 7.5 4Z" fill="#805AD5"/>
</svg>
