<svg width="20" height="20" viewBox="0 0 20 20" fill="none" xmlns="http://www.w3.org/2000/svg">
<g clip-path="url(#clip0_895_146114)">
<path d="M7.49871 7.06821V12.9315L12.5237 9.99988L7.49871 7.06821ZM6.45871 4.53321L15.2154 9.64154C15.2781 9.67828 15.3302 9.7308 15.3663 9.79388C15.4025 9.85696 15.4215 9.92841 15.4215 10.0011C15.4215 10.0738 15.4025 10.1453 15.3663 10.2084C15.3302 10.2715 15.2781 10.324 15.2154 10.3607L6.45871 15.469C6.3952 15.5061 6.32302 15.5257 6.24949 15.5258C6.17597 15.526 6.10371 15.5067 6.04007 15.4698C5.97642 15.433 5.92365 15.38 5.88711 15.3162C5.85058 15.2524 5.83158 15.1801 5.83204 15.1065V4.89238C5.83202 4.81906 5.85134 4.74704 5.88806 4.68358C5.92477 4.62012 5.97758 4.56748 6.04115 4.53096C6.10473 4.49444 6.17681 4.47534 6.25012 4.47559C6.32343 4.47584 6.39538 4.49543 6.45871 4.53238V4.53321Z" fill="#4299E1"/>
</g>
<defs>
<clipPath id="clip0_895_146114">
<rect width="20" height="20" fill="white"/>
</clipPath>
</defs>
</svg>
