<svg width="27" height="53" viewBox="0 0 159 315" fill="none" xmlns="http://www.w3.org/2000/svg">
<path d="M1.16992 314.705C88.0733 314.705 158.522 244.256 158.522 157.353C158.522 70.4491 88.0733 0 1.16992 0V314.705Z" fill="#FF6C37"/>
<path d="M80.2342 61.5878C76.5303 61.5914 72.8751 62.426 69.5365 64.0294C66.1979 65.6333 63.2616 67.9649 60.944 70.854C58.6259 73.7425 56.9857 77.1138 56.1433 80.7207C55.3009 84.3271 55.278 88.0762 56.0768 91.693C56.8752 95.3093 58.4749 98.7008 60.7577 101.617C63.04 104.533 65.9477 106.901 69.2666 108.545C72.5854 110.189 76.2308 111.067 79.9337 111.116C83.6372 111.165 87.3043 110.382 90.6652 108.826L73.8228 91.9837C73.6292 91.7911 73.4756 91.5617 73.3713 91.3094C73.2664 91.0572 73.2124 90.7868 73.2124 90.5137C73.2124 90.2407 73.2664 89.9703 73.3713 89.718C73.4756 89.4657 73.6292 89.2368 73.8228 89.0438L95.8308 67.0524C91.4106 63.4989 85.9055 61.5696 80.2342 61.5878Z" fill="white"/>
<path d="M98.8638 69.9106L78.2344 90.457L94.4123 106.635C95.6041 105.798 96.7159 104.852 97.7343 103.811C102.168 99.3474 104.749 93.3709 104.959 87.0826C105.168 80.7947 102.991 74.66 98.8638 69.9106Z" fill="white"/>
<path d="M57.2364 107.829H57.6018C58.0202 107.849 58.4364 107.899 58.8475 107.978H59.1631C60.7291 108.293 62.1659 109.066 63.2927 110.199C64.4191 111.331 65.1842 112.772 65.4915 114.34C65.5745 114.539 65.5745 114.639 65.5745 114.938V114.938V115.835V116.383C65.546 116.801 65.4904 117.217 65.4084 117.629C65.3586 117.828 65.2423 118.027 65.2423 118.227C65.166 118.504 65.0715 118.775 64.9599 119.04C64.8769 119.24 64.7938 119.439 64.6942 119.638C64.5172 119.989 64.3174 120.327 64.0962 120.652L63.8139 121.017C63.517 121.403 63.1832 121.759 62.8173 122.08L30.4282 150.508L14.2336 164.721L6.13636 171.828L2.08772 175.382L0.0634032 177.159L0.0234375 161.8L1.93512 159.888L5.75849 156.064L21.052 140.766L51.6389 110.171C51.9882 109.829 52.3661 109.518 52.7684 109.241L53.1338 109.008C53.4405 108.816 53.7629 108.649 54.0971 108.51L54.4459 108.344C54.8897 108.178 55.345 108.045 55.808 107.945H55.9574C56.3789 107.865 56.8071 107.826 57.2364 107.829Z" fill="white"/>
<path d="M1.16992 155.98L1.16992 131.023C41.7247 93.588 45.2196 95.4384 56.0658 103.743C53.2883 104.017 50.6868 105.23 48.691 107.182L18.0211 137.852L1.16992 155.98Z" fill="white"/>
<path d="M66.2698 124.473L65.5223 125.204L0.744141 182.043L11.7564 193.038C39.0629 167.21 63.2966 142.611 66.2698 124.473Z" fill="white"/>
<path d="M2.90671 190.046L8.72014 195.86L0 204.353L0 187.139L2.90671 190.046Z" fill="white"/>
<path d="M99.4511 83.2954C99.366 83.0343 99.2258 82.794 99.04 82.591C98.8542 82.3886 98.6274 82.2277 98.3746 82.1197C98.1218 82.0123 97.8483 81.9598 97.5737 81.9661C97.2986 81.9728 97.0287 82.0377 96.7811 82.1576C96.5335 82.277 96.3145 82.4483 96.1385 82.6595C95.9625 82.8708 95.8338 83.1173 95.7611 83.3826C95.6885 83.6478 95.6729 83.925 95.7165 84.1965C95.7601 84.4684 95.8608 84.7275 96.0129 84.9564C96.5091 85.9555 96.7058 87.0767 96.5786 88.1849C96.452 89.2926 96.0077 90.3405 95.2987 91.2016C95.0656 91.483 94.9172 91.8245 94.871 92.1868C94.8248 92.5496 94.8824 92.9171 95.0376 93.2483C95.1923 93.5789 95.4383 93.8587 95.7461 94.0554C96.0539 94.2516 96.4115 94.3565 96.7769 94.3575C97.0588 94.3544 97.337 94.2905 97.5924 94.1701C97.8472 94.0497 98.0735 93.8758 98.2552 93.6599C99.4303 92.2304 100.168 90.4926 100.381 88.6541C100.593 86.8156 100.27 84.9548 99.4511 83.2954Z" fill="#FF6C37"/>
</svg>
