<svg width="12" height="12" viewBox="0 0 12 12" fill="none" xmlns="http://www.w3.org/2000/svg">
<path d="M10.5 8.25C10.5 8.44 10.395 8.605 10.235 8.69L6.285 10.91C6.205 10.97 6.105 11 6 11C5.895 11 5.795 10.97 5.715 10.91L1.765 8.69C1.68484 8.64788 1.61776 8.58459 1.57104 8.50702C1.52432 8.42945 1.49975 8.34055 1.5 8.25V3.75C1.5 3.56 1.605 3.395 1.765 3.31L5.715 1.09C5.795 1.03 5.895 1 6 1C6.105 1 6.205 1.03 6.285 1.09L10.235 3.31C10.395 3.395 10.5 3.56 10.5 3.75V8.25ZM6 2.075L3.02 3.75L6 5.425L8.98 3.75L6 2.075Z" fill="#01CCF5"/>
</svg>
