<svg width="12" height="12" viewBox="0 0 12 12" fill="none" xmlns="http://www.w3.org/2000/svg">
<g clip-path="url(#clip0_81382_49063)">
<path d="M10.4197 11.3633L8.63969 9.58328L6.28469 10.9083C6.20469 10.9683 6.10469 10.9983 5.99969 10.9983C5.89469 10.9983 5.79469 10.9683 5.71469 10.9083L1.76469 8.68828C1.68453 8.64616 1.61744 8.58287 1.57072 8.5053C1.524 8.42773 1.49944 8.33884 1.49969 8.24828V3.74828C1.49969 3.55828 1.60469 3.39328 1.76469 3.30828L2.14969 3.09328L0.554688 1.49828L1.19469 0.863281L11.0547 10.7283L10.4197 11.3633ZM5.99969 2.07328L8.97969 3.74828L6.65469 5.05328L10.2647 8.66328C10.4097 8.57828 10.4997 8.42328 10.4997 8.24828V3.74828C10.4997 3.55828 10.3947 3.39328 10.2347 3.30828L6.28469 1.08828C6.20469 1.02828 6.10469 0.998281 5.99969 0.998281C5.89469 0.998281 5.79469 1.02828 5.71469 1.08828L3.77969 2.17828L4.49969 2.90828L5.99969 2.07328Z" fill="#E53E3E"/>
</g>
<defs>
<clipPath id="clip0_81382_49063">
<rect width="12" height="12" fill="white"/>
</clipPath>
</defs>
</svg>
