<svg width="12" height="12" viewBox="0 0 12 12" fill="none" xmlns="http://www.w3.org/2000/svg">
<g clip-path="url(#clip0_81086_73741)">
<path d="M1.9645 2.46484L2.6715 3.17184C1.9475 3.89584 1.5 4.89584 1.5 6.00034C1.5 7.10534 1.9475 8.10534 2.6715 8.82884L1.965 9.53534C1.0595 8.63084 0.5 7.38084 0.5 6.00034C0.5 4.61984 1.06 3.36984 1.9645 2.46484ZM10.0355 2.46484C10.9405 3.36984 11.5 4.61984 11.5 6.00034C11.5 7.38084 10.94 8.63134 10.0355 9.53584L9.3285 8.82884C10.0525 8.10484 10.5 7.10484 10.5 6.00034C10.5 4.89584 10.0525 3.89634 9.329 3.17234L10.035 2.46534L10.0355 2.46484ZM6.5 2.50034V5.50034H8L5.5 9.50034V6.50034H4L6.5 2.50034ZM3.3785 3.87884L4.086 4.58634C3.724 4.94784 3.5 5.44784 3.5 6.00034C3.5 6.55284 3.724 7.05284 4.086 7.41434L3.3785 8.12184C2.836 7.57884 2.5 6.82884 2.5 6.00034C2.5 5.17184 2.836 4.42184 3.3785 3.87884ZM8.622 3.87934C9.1645 4.42234 9.5 5.17234 9.5 6.00034C9.5 6.82884 9.164 7.57884 8.6215 8.12184L7.914 7.41434C8.276 7.05284 8.5 6.55284 8.5 6.00034C8.5 5.44834 8.2765 4.94834 7.915 4.58684L8.622 3.87934Z" fill="#D69E2E"/>
</g>
<defs>
<clipPath id="clip0_81086_73741">
<rect width="12" height="12" fill="white"/>
</clipPath>
</defs>
</svg>
