<svg width="12" height="12" viewBox="0 0 12 12" fill="none" xmlns="http://www.w3.org/2000/svg">
<g clip-path="url(#clip0_81382_49340)">
<path d="M2 10C1.725 10 1.49 9.9 1.295 9.705C1.1 9.51 1 9.275 1 9V3C1 2.725 1.1 2.49 1.295 2.295C1.49 2.1 1.725 2 2 2H8C8.275 2 8.51 2.1 8.705 2.295C8.905 2.49 9 2.725 9 3V5.25L10.575 3.675C10.66 3.59 10.75 3.57 10.85 3.615C10.95 3.655 11 3.735 11 3.85V8.15C11 8.265 10.95 8.345 10.85 8.39C10.75 8.43 10.66 8.41 10.575 8.33L9 6.75V9C9 9.275 8.9 9.51 8.705 9.705C8.51 9.9 8.275 10 8 10H2Z" fill="#FE64D8"/>
<path d="M2.82031 4.23C3.33531 3.745 4.01031 3.5 4.68531 3.5C5.36031 3.5 6.03531 3.745 6.55031 4.23C7.06531 4.72 7.32031 5.36 7.32031 6C7.32031 6.64 7.06031 7.28 6.55031 7.77C6.03531 8.255 5.36031 8.5 4.68531 8.5C4.01031 8.5 3.33531 8.255 2.82031 7.77L4.68531 6L2.82031 4.23Z" fill="white"/>
</g>
<defs>
<clipPath id="clip0_81382_49340">
<rect width="10" height="8" fill="white" transform="translate(1 2)"/>
</clipPath>
</defs>
</svg>
