<svg width="17" height="16" viewBox="0 0 17 16" fill="none" xmlns="http://www.w3.org/2000/svg">
<g clip-path="url(#clip0_82412_60053)">
<path d="M5.16667 12.6667V8.66667H11.8333V12.6667H13.1667V5.21867L11.2813 3.33333H3.83333V12.6667H5.16667ZM3.16667 2H11.8333L14.5 4.66667V13.3333C14.5 13.5101 14.4298 13.6797 14.3047 13.8047C14.1797 13.9298 14.0101 14 13.8333 14H3.16667C2.98986 14 2.82029 13.9298 2.69526 13.8047C2.57024 13.6797 2.5 13.5101 2.5 13.3333V2.66667C2.5 2.48986 2.57024 2.32029 2.69526 2.19526C2.82029 2.07024 2.98986 2 3.16667 2ZM6.5 10V12.6667H10.5V10H6.5Z" fill="#38A169"/>
</g>
<defs>
<clipPath id="clip0_82412_60053">
<rect width="16" height="16" fill="white" transform="translate(0.5)"/>
</clipPath>
</defs>
</svg>
