<svg width="14" height="14" viewBox="0 0 14 14" fill="none" xmlns="http://www.w3.org/2000/svg">
    <g clip-path="url(#clip0_82731_55395)">
        <path d="M7.0013 12.8307C3.77955 12.8307 1.16797 10.2191 1.16797 6.9974C1.16797 3.77565 3.77955 1.16406 7.0013 1.16406C10.2231 1.16406 12.8346 3.77565 12.8346 6.9974C12.8346 10.2191 10.2231 12.8307 7.0013 12.8307ZM7.0013 11.6641C8.23898 11.6641 9.42596 11.1724 10.3011 10.2972C11.1763 9.42206 11.668 8.23507 11.668 6.9974C11.668 5.75972 11.1763 4.57273 10.3011 3.69756C9.42596 2.82239 8.23898 2.33073 7.0013 2.33073C5.76363 2.33073 4.57664 2.82239 3.70147 3.69756C2.8263 4.57273 2.33464 5.75972 2.33464 6.9974C2.33464 8.23507 2.8263 9.42206 3.70147 10.2972C4.57664 11.1724 5.76363 11.6641 7.0013 11.6641Z" fill="#718096"/>
    </g>
    <defs>
        <clipPath id="clip0_82731_55395">
            <rect width="14" height="14" fill="white"/>
        </clipPath>
    </defs>
</svg>
