<svg width="22" height="44" viewBox="0 0 156 312" fill="none" xmlns="http://www.w3.org/2000/svg">
<path d="M0.0195312 155.98C0.0195312 242.125 69.8541 311.96 155.999 311.96V0C69.8541 0 0.0195312 69.8346 0.0195312 155.98Z" fill="#5AED00"/>
<path d="M94.5723 241.199C71.7237 241.199 61.7534 231.81 61.7534 210.873V190.35C61.7534 177.804 56.6851 173.235 42.5605 173.152V152.712C56.6021 152.712 61.7534 148.143 61.7534 135.514V115.158C61.7534 94.3031 71.7237 85.0806 94.5723 85.0806H100.139V100.535H96.5664C85.6821 100.535 81.4447 105.354 81.4447 117.65V141.496C81.4447 153.46 74.3824 160.273 60.9225 161.769V164.178C74.3824 165.591 81.4447 172.404 81.4447 184.368V208.629C81.4447 220.926 85.6821 225.745 96.5664 225.745H100.139V241.199H94.5723Z" fill="#073749"/>
<path d="M142.286 169.162C137.384 169.162 133.479 165.257 133.479 160.438C133.479 155.536 137.384 151.631 142.286 151.631C147.188 151.631 151.01 155.536 151.01 160.438C151.01 165.257 147.188 169.162 142.286 169.162Z" fill="#073749"/>
<path d="M107.118 169.162C102.216 169.162 98.3105 165.257 98.3105 160.438C98.3105 155.536 102.216 151.631 107.118 151.631C112.02 151.631 115.842 155.536 115.842 160.438C115.842 165.257 112.02 169.162 107.118 169.162Z" fill="#073749"/>
<path d="M155.999 311.96C114.631 311.96 74.9569 295.526 45.705 266.274C16.4531 237.022 0.0195301 197.348 0.0195313 155.98C0.0195324 114.611 16.4531 74.9374 45.705 45.6855C74.9569 16.4336 114.631 -4.93314e-07 155.999 0V16.3779C118.975 16.3779 83.4664 31.0859 57.2859 57.2664C31.1055 83.4468 16.3974 118.955 16.3974 155.98C16.3974 193.005 31.1055 228.513 57.2859 254.693C83.4664 280.874 118.975 295.582 155.999 295.582L155.999 311.96Z" fill="#073749"/>
</svg>
