<svg width="16" height="16" viewBox="0 0 16 16" fill="none" xmlns="http://www.w3.org/2000/svg">
    <path d="M11.3346 1.33594V2.66927H10.668V12.0026C10.668 13.4759 9.47464 14.6693 8.0013 14.6693C6.52797 14.6693 5.33464 13.4759 5.33464 12.0026V2.66927H4.66797V1.33594H11.3346ZM9.33464 6.66927H6.66797V12.0026C6.66797 12.7393 7.26464 13.3359 8.0013 13.3359C8.73797 13.3359 9.33464 12.7393 9.33464 12.0026V6.66927ZM8.66797 10.0026C9.03597 10.0026 9.33464 10.3013 9.33464 10.6693C9.33464 11.0373 9.03597 11.3359 8.66797 11.3359C8.29997 11.3359 8.0013 11.0373 8.0013 10.6693C8.0013 10.3013 8.29997 10.0026 8.66797 10.0026ZM7.33464 8.0026C7.70264 8.0026 8.0013 8.30127 8.0013 8.66927C8.0013 9.03727 7.70264 9.33594 7.33464 9.33594C6.96664 9.33594 6.66797 9.03727 6.66797 8.66927C6.66797 8.30127 6.96664 8.0026 7.33464 8.0026ZM9.33464 2.66927H6.66797V5.33594H9.33464V2.66927Z" fill="#A0AEC0"/>
</svg>
