<svg width="39" height="39" viewBox="0 0 39 39" fill="none" xmlns="http://www.w3.org/2000/svg">
<path d="M39.001 19.5H34.126C34.126 15.4619 32.4902 11.8056 29.8414 9.15958C27.1954 6.51083 23.5391 4.875 19.501 4.875C15.4629 4.875 11.8066 6.51083 9.1606 9.15958L5.71289 5.71188C9.24185 2.18292 14.1168 0 19.501 0C24.8852 0 29.7602 2.18292 33.2891 5.71188C36.8181 9.24083 39.001 14.1158 39.001 19.5Z" fill="#01CCF5"/>
<path d="M33.2881 33.2881C29.7592 36.8171 24.8842 39 19.5 39C14.1158 39 9.24083 36.8171 5.71188 33.2881C2.18292 29.7592 0 24.8842 0 19.5H4.875C4.875 23.5381 6.51083 27.1944 9.15958 29.8404C11.8056 32.4892 15.4619 34.125 19.5 34.125C23.5381 34.125 27.1944 32.4892 29.8404 29.8404L33.2881 33.2881Z" fill="#FE64D8"/>
<path d="M12.6055 12.6046C14.5094 10.7034 17.0065 9.75002 19.5009 9.74731C21.9953 9.75002 24.4923 10.7006 26.3963 12.6046C28.2976 14.5086 29.2509 17.0056 29.2536 19.5C29.2509 21.9944 28.3003 24.4915 26.3963 26.3954C24.4923 28.2967 21.9953 29.25 19.5009 29.2527C17.0065 29.25 14.5094 28.2994 12.6055 26.3954L19.5009 19.5L12.6055 12.6046Z" fill="white"/>
</svg>
