<svg width="16" height="16" viewBox="0 0 16 16" fill="none" xmlns="http://www.w3.org/2000/svg">
<circle cx="8" cy="8" r="8" transform="matrix(1 0 0 -1 0 16)" fill="#171923"/>
<path d="M14.9688 8H13.2266C13.2266 9.44311 12.642 10.7498 11.6954 11.6954C10.7498 12.642 9.44311 13.2266 8 13.2266C6.55689 13.2266 5.25025 12.642 4.30462 11.6954L3.07251 12.9275C4.33366 14.1886 6.07585 14.9688 8 14.9688C9.92415 14.9688 11.6663 14.1886 12.9275 12.9275C14.1886 11.6663 14.9688 9.92415 14.9688 8Z" fill="#01CCF5"/>
<path d="M12.9275 3.07251C11.6663 1.81136 9.92415 1.03125 8 1.03125C6.07585 1.03125 4.33366 1.81136 3.07251 3.07251C1.81136 4.33366 1.03125 6.07585 1.03125 8H2.77344C2.77344 6.55689 3.35804 5.25025 4.30463 4.30463C5.25025 3.35804 6.55689 2.77344 8 2.77344C9.44312 2.77344 10.7498 3.35804 11.6954 4.30463L12.9275 3.07251Z" fill="#FE64D8"/>
<path d="M5.53577 10.4642C6.21619 11.1437 7.10858 11.4844 7.99999 11.4854C8.89141 11.4844 9.7838 11.1447 10.4642 10.4642C11.1437 9.78381 11.4844 8.89143 11.4853 8.00001C11.4844 7.10859 11.1446 6.2162 10.4642 5.53578C9.7838 4.85633 8.89141 4.51563 7.99999 4.51466C7.10858 4.51563 6.21619 4.85536 5.53577 5.53578L7.99999 8.00001L5.53577 10.4642Z" fill="#EEEEEE"/>
</svg>
