<?xml version="1.0" encoding="UTF-8"?>
<svg xmlns="http://www.w3.org/2000/svg" xmlns:xlink="http://www.w3.org/1999/xlink" width="39px" height="39px" viewBox="0 0 39 39" version="1.1">
<g id="surface1">
<path style=" stroke:none;fill-rule:nonzero;fill:rgb(9.019608%,9.803922%,13.72549%);fill-opacity:1;" d="M 39 19.5 C 39 30.269531 30.269531 39 19.5 39 C 8.730469 39 0 30.269531 0 19.5 C 0 8.730469 8.730469 0 19.5 0 C 30.269531 0 39 8.730469 39 19.5 Z M 39 19.5 "/>
<path style=" stroke:none;fill-rule:nonzero;fill:rgb(0.392157%,80%,96.078431%);fill-opacity:1;" d="M 31.6875 19.5 L 28.640625 19.5 C 28.640625 16.976562 27.617188 14.691406 25.960938 13.039062 C 24.308594 11.382812 22.023438 10.359375 19.5 10.359375 C 16.976562 10.359375 14.691406 11.382812 13.039062 13.039062 L 10.882812 10.882812 C 13.089844 8.675781 16.136719 7.3125 19.5 7.3125 C 22.863281 7.3125 25.910156 8.675781 28.117188 10.882812 C 30.324219 13.089844 31.6875 16.136719 31.6875 19.5 Z M 31.6875 19.5 "/>
<path style=" stroke:none;fill-rule:nonzero;fill:rgb(99.607843%,39.215686%,84.705882%);fill-opacity:1;" d="M 28.117188 28.117188 C 25.910156 30.324219 22.863281 31.6875 19.5 31.6875 C 16.136719 31.6875 13.089844 30.324219 10.882812 28.117188 C 8.675781 25.910156 7.3125 22.863281 7.3125 19.5 L 10.359375 19.5 C 10.359375 22.023438 11.382812 24.308594 13.039062 25.960938 C 14.691406 27.617188 16.976562 28.640625 19.5 28.640625 C 22.023438 28.640625 24.308594 27.617188 25.960938 25.960938 Z M 28.117188 28.117188 "/>
<path style=" stroke:none;fill-rule:nonzero;fill:rgb(93.333333%,93.333333%,93.333333%);fill-opacity:1;" d="M 15.191406 15.191406 C 16.378906 14.003906 17.941406 13.40625 19.5 13.40625 C 21.058594 13.40625 22.621094 14 23.808594 15.191406 C 24.996094 16.378906 25.59375 17.941406 25.59375 19.5 C 25.59375 21.058594 25 22.621094 23.808594 23.808594 C 22.621094 24.996094 21.058594 25.59375 19.5 25.59375 C 17.941406 25.59375 16.378906 25 15.191406 23.808594 L 19.5 19.5 Z M 15.191406 15.191406 "/>
</g>
</svg>
