<svg width="16" height="16" viewBox="0 0 16 16" fill="none" xmlns="http://www.w3.org/2000/svg">
<path d="M16.0004 8H14.0004C14.0004 6.34333 13.3293 4.84333 12.2426 3.75778C11.1571 2.67111 9.65708 2 8.00042 2C6.34375 2 4.84375 2.67111 3.75819 3.75778L2.34375 2.34333C3.79153 0.895556 5.79153 0 8.00042 0C10.2093 0 12.2093 0.895556 13.6571 2.34333C15.1049 3.79111 16.0004 5.79111 16.0004 8Z" fill="#01CCF5"/>
<path d="M13.6567 13.6567C12.2089 15.1044 10.2089 16 8 16C5.79111 16 3.79111 15.1044 2.34333 13.6567C0.895556 12.2089 0 10.2089 0 8H2C2 9.65667 2.67111 11.1567 3.75778 12.2422C4.84333 13.3289 6.34333 14 8 14C9.65667 14 11.1567 13.3289 12.2422 12.2422L13.6567 13.6567Z" fill="#FE64D8"/>
<path d="M5.1709 5.17027C5.95201 4.39027 6.97645 3.99916 7.99979 3.99805C9.02312 3.99916 10.0476 4.38916 10.8287 5.17027C11.6087 5.95138 11.9998 6.97582 12.0009 7.99916C11.9998 9.02249 11.6098 10.0469 10.8287 10.828C10.0476 11.608 9.02312 11.9992 7.99979 12.0003C6.97645 11.9992 5.95201 11.6092 5.1709 10.828L7.99979 7.99916L5.1709 5.17027Z" fill="#718096"/>
</svg>
